<svg width="28" height="20" viewBox="0 0 28 20" fill="none" xmlns="http://www.w3.org/2000/svg">
<rect width="28" height="20" rx="2" fill="white"/>
<mask id="mask0_7_339" style="mask-type:luminance" maskUnits="userSpaceOnUse" x="0" y="0" width="28" height="20">
<rect width="28" height="20" rx="2" fill="white"/>
</mask>
<g mask="url(#mask0_7_339)">
<path fill-rule="evenodd" clip-rule="evenodd" d="M28 0H0V1.33333H28V0ZM28 2.66667H0V4H28V2.66667ZM0 5.33333H28V6.66667H0V5.33333ZM28 8H0V9.33333H28V8ZM0 10.6667H28V12H0V10.6667ZM28 13.3333H0V14.6667H28V13.3333ZM0 16H28V17.3333H0V16ZM28 18.6667H0V20H28V18.6667Z" fill="#D02F44"/>
<rect width="12" height="9.33333" fill="#46467F"/>
<g filter="url(#filter0_d_7_339)">
<path fill-rule="evenodd" clip-rule="evenodd" d="M2.66665 1.99998C2.66665 2.36817 2.36817 2.66665 1.99998 2.66665C1.63179 2.66665 1.33331 2.36817 1.33331 1.99998C1.33331 1.63179 1.63179 1.33331 1.99998 1.33331C2.36817 1.33331 2.66665 1.63179 2.66665 1.99998ZM5.33331 1.99998C5.33331 2.36817 5.03484 2.66665 4.66665 2.66665C4.29846 2.66665 3.99998 2.36817 3.99998 1.99998C3.99998 1.63179 4.29846 1.33331 4.66665 1.33331C5.03484 1.33331 5.33331 1.63179 5.33331 1.99998ZM7.33331 2.66665C7.7015 2.66665 7.99998 2.36817 7.99998 1.99998C7.99998 1.63179 7.7015 1.33331 7.33331 1.33331C6.96512 1.33331 6.66665 1.63179 6.66665 1.99998C6.66665 2.36817 6.96512 2.66665 7.33331 2.66665ZM10.6666 1.99998C10.6666 2.36817 10.3682 2.66665 9.99998 2.66665C9.63179 2.66665 9.33331 2.36817 9.33331 1.99998C9.33331 1.63179 9.63179 1.33331 9.99998 1.33331C10.3682 1.33331 10.6666 1.63179 10.6666 1.99998ZM3.33331 3.99998C3.7015 3.99998 3.99998 3.7015 3.99998 3.33331C3.99998 2.96512 3.7015 2.66665 3.33331 2.66665C2.96512 2.66665 2.66665 2.96512 2.66665 3.33331C2.66665 3.7015 2.96512 3.99998 3.33331 3.99998ZM6.66665 3.33331C6.66665 3.7015 6.36817 3.99998 5.99998 3.99998C5.63179 3.99998 5.33331 3.7015 5.33331 3.33331C5.33331 2.96512 5.63179 2.66665 5.99998 2.66665C6.36817 2.66665 6.66665 2.96512 6.66665 3.33331ZM8.66665 3.99998C9.03484 3.99998 9.33331 3.7015 9.33331 3.33331C9.33331 2.96512 9.03484 2.66665 8.66665 2.66665C8.29846 2.66665 7.99998 2.96512 7.99998 3.33331C7.99998 3.7015 8.29846 3.99998 8.66665 3.99998ZM10.6666 4.66665C10.6666 5.03484 10.3682 5.33331 9.99998 5.33331C9.63179 5.33331 9.33331 5.03484 9.33331 4.66665C9.33331 4.29846 9.63179 3.99998 9.99998 3.99998C10.3682 3.99998 10.6666 4.29846 10.6666 4.66665ZM7.33331 5.33331C7.7015 5.33331 7.99998 5.03484 7.99998 4.66665C7.99998 4.29846 7.7015 3.99998 7.33331 3.99998C6.96512 3.99998 6.66665 4.29846 6.66665 4.66665C6.66665 5.03484 6.96512 5.33331 7.33331 5.33331ZM5.33331 4.66665C5.33331 5.03484 5.03484 5.33331 4.66665 5.33331C4.29846 5.33331 3.99998 5.03484 3.99998 4.66665C3.99998 4.29846 4.29846 3.99998 4.66665 3.99998C5.03484 3.99998 5.33331 4.29846 5.33331 4.66665ZM1.99998 5.33331C2.36817 5.33331 2.66665 5.03484 2.66665 4.66665C2.66665 4.29846 2.36817 3.99998 1.99998 3.99998C1.63179 3.99998 1.33331 4.29846 1.33331 4.66665C1.33331 5.03484 1.63179 5.33331 1.99998 5.33331ZM3.99998 5.99998C3.99998 6.36817 3.7015 6.66665 3.33331 6.66665C2.96512 6.66665 2.66665 6.36817 2.66665 5.99998C2.66665 5.63179 2.96512 5.33331 3.33331 5.33331C3.7015 5.33331 3.99998 5.63179 3.99998 5.99998ZM5.99998 6.66665C6.36817 6.66665 6.66665 6.36817 6.66665 5.99998C6.66665 5.63179 6.36817 5.33331 5.99998 5.33331C5.63179 5.33331 5.33331 5.63179 5.33331 5.99998C5.33331 6.36817 5.63179 6.66665 5.99998 6.66665ZM9.33331 5.99998C9.33331 6.36817 9.03484 6.66665 8.66665 6.66665C8.29846 6.66665 7.99998 6.36817 7.99998 5.99998C7.99998 5.63179 8.29846 5.33331 8.66665 5.33331C9.03484 5.33331 9.33331 5.63179 9.33331 5.99998ZM9.99998 7.99998C10.3682 7.99998 10.6666 7.7015 10.6666 7.33331C10.6666 6.96512 10.3682 6.66665 9.99998 6.66665C9.63179 6.66665 9.33331 6.96512 9.33331 7.33331C9.33331 7.7015 9.63179 7.99998 9.99998 7.99998ZM7.99998 7.33331C7.99998 7.7015 7.7015 7.99998 7.33331 7.99998C6.96512 7.99998 6.66665 7.7015 6.66665 7.33331C6.66665 6.96512 6.96512 6.66665 7.33331 6.66665C7.7015 6.66665 7.99998 6.96512 7.99998 7.33331ZM4.66665 7.99998C5.03484 7.99998 5.33331 7.7015 5.33331 7.33331C5.33331 6.96512 5.03484 6.66665 4.66665 6.66665C4.29846 6.66665 3.99998 6.96512 3.99998 7.33331C3.99998 7.7015 4.29846 7.99998 4.66665 7.99998ZM2.66665 7.33331C2.66665 7.7015 2.36817 7.99998 1.99998 7.99998C1.63179 7.99998 1.33331 7.7015 1.33331 7.33331C1.33331 6.96512 1.63179 6.66665 1.99998 6.66665C2.36817 6.66665 2.66665 6.96512 2.66665 7.33331Z" fill="url(#paint0_linear_7_339)"/>
</g>
</g>
<defs>
<filter id="filter0_d_7_339" x="1.33331" y="1.33331" width="9.33331" height="7.66669" filterUnits="userSpaceOnUse" color-interpolation-filters="sRGB">
<feFlood flood-opacity="0" result="BackgroundImageFix"/>
<feColorMatrix in="SourceAlpha" type="matrix" values="0 0 0 0 0 0 0 0 0 0 0 0 0 0 0 0 0 0 127 0" result="hardAlpha"/>
<feOffset dy="1"/>
<feColorMatrix type="matrix" values="0 0 0 0 0 0 0 0 0 0 0 0 0 0 0 0 0 0 0.06 0"/>
<feBlend mode="normal" in2="BackgroundImageFix" result="effect1_dropShadow_7_339"/>
<feBlend mode="normal" in="SourceGraphic" in2="effect1_dropShadow_7_339" result="shape"/>
</filter>
<linearGradient id="paint0_linear_7_339" x1="1.33331" y1="1.33331" x2="1.33331" y2="7.99998" gradientUnits="userSpaceOnUse">
<stop stop-color="white"/>
<stop offset="1" stop-color="#F0F0F0"/>
</linearGradient>
</defs>
</svg>
