<?xml version="1.0" encoding="UTF-8"?>
<svg viewBox="0 0 300 300" xmlns="http://www.w3.org/2000/svg" className="fill-current">
 <path className="fill-current" d="m197.04 22.151c9.665-8.422 22.375-11.751 34.682-14.042-1.945 3.01-5.224 4.635-7.979 6.766-6.979 5.124-14.194 10.657-18.042 18.649-2 4.271-4.717 8.227-6.242 12.703-0.72101 5.723 3.688 10.163 6.893 14.338 3.172 4.225 7.298 7.54 10.939 11.32 2.954 3.852 0.823 9.169-2.324 12.194-2.389 2.341-6.021 1.926-9.061 1.641-6.459-1.529-10.922-6.975-14.584-12.147-5.337-7.584-10.416-16.172-10.5-25.716 1.398-10.397 8.588-18.992 16.218-25.706z"/>
 <path className="fill-current" d="m179.54 60.588c4.563-3.582 8.664-7.848 13.752-10.702-0.55298 1.432-1.225 2.815-2.059 4.102-16.219 24.849-32.908 49.393-48.838 74.431-5.658 7.909-12.157 15.157-18.601 22.425-5.568 5.985-13.237 10.683-21.721 9.881-3.554 0.791-5.562-2.772-6.314-5.684-1.137-4.484 0.39999-9.077 2.21-13.158 3.138-7.033 8.707-12.531 14.211-17.749 7.063-6.6 13.533-13.798 20.628-20.364 15.443-14.539 31.097-28.852 46.732-43.182z"/>
 <path className="fill-current" d="m127.51 77.532c2.843-2.842 4.351-6.813 7.618-9.248-1.793 5.818-4.647 11.24-6.997 16.845-5.48 11.723-14.282 22.76-26.639 27.58-8.089 3.144-16.859 4.051-25.481 3.713-8.025 0.395-16.517-1.358-22.782-6.654-3.346-2.746-7.296-6.097-7.128-10.848 0.10001-3.124 3.273-4.7 5.776-5.767 4.271-1.393 8.417 0.794 12.271 2.395 12.778 4.719 27.407 6.959 40.369 1.629 9.825-3.528 16.17-12.266 22.993-19.645z"/>
 <path className="fill-current" d="m19.227 87.858c3.405-2.654 8.055-1.149 11.313 0.985 1.692 3.873 2.914 8.004 3.569 12.184 1.235 12.806 1.792 25.689 3.873 38.402 4.367 0.522 7.948-2.473 11.847-3.875 7.762-3.324 16.234-4.402 24.077-7.484 4.675-1.775 9.448-3.366 14.378-4.264-0.827 1.878-2.12 3.483-3.647 4.837-12.697 11.439-26.993 21.86-43.716 26.375-2.991 0.73399-6.122 0.75-9.154 0.27699-4.745-2.877-7.963-7.626-10.813-12.263-6.2-11.662-10.031-24.847-9.648-38.127 0.16101-6.391 2.645-13.146 7.921-17.047z"/>
 <path className="fill-current" d="m245.14 90.803c0.57898-4.301 2.949-9.4 7.813-9.911 5.36-0.513 10.401 2.386 14.185 5.949 4.003 4.337 6.635 9.724 8.856 15.14 3.19 8.293 5.771 16.97 6.159 25.897 0.31802 7.499-4.771 13.56-9.387 18.879-5.342 5.512-11.519 10.521-18.935 12.889-5.478 1.646-10.827 3.885-16.519 4.684 2.04-3.507 5.377-5.93 8.006-8.951 6.955-6.932 13.305-14.624 17.805-23.396 1.879-3.432 1.271-7.609-0.016022-11.135-3.025-8.238-8.209-15.488-13.93-22.064-2.168-2.16-3.631-4.934-4.037-7.981z"/>
 <path className="fill-current" d="m63.167 164.96c1.488-6.469 6.064-11.804 11.518-15.387 4.144 0.739 7.957 3.117 9.811 6.994 4.124 7.054 4.648 15.493 4.667 23.473-1.07 11.267-1.965 22.553-2.688 33.849-2.451 22.52-4.948 45.036-7.404 67.556-0.99298 6.252-1.958 12.524-3.361 18.701-0.81198-1.464-1.269-3.066-1.453-4.715-3.768-28.775-7.02-57.621-11.195-86.337-1.009-6.638-1.391-13.362-1.242-20.071 0.185-8.026-0.70203-16.2 1.347-24.063z"/>
 <path className="fill-current" d="m188.7 141.65c5.527-7.112 14.412-12.004 23.592-10.997 4.596 3.925 4.793 10.774 3.296 16.215-2.55 8.433-7.193 16.171-13.167 22.624-10.199 11.163-19.557 23.072-29.999 34.017-13.579 14.69-27.12 29.421-40.814 44.003-4.434 3.811-7.995 8.727-13.104 11.682 0.48801-1.367 1.074-2.688 1.757-3.96 14.352-25.021 28.55-50.13 42.649-75.294 7.013-13.747 16.057-26.356 25.79-38.29z"/>
 <path className="fill-current" d="m226.72 170.74c1.117-1.83 1.637-4.91 4.214-5.115 6.557-1.34 12.22 3.553 15.927 8.391 6.979 8.782 9.111 20.039 12.93 30.32 6.773 18.468 12.061 37.422 17.768 56.234 3.424 11.543 7.244 23.027 9.34 34.904-0.85501-0.67203-1.593-1.448-2.211-2.328-15.326-25.02-29.864-50.527-45.375-75.432-4.165-7.766-7.816-15.792-11.096-23.966-2.857-7.229-5.144-15.613-1.497-23.008z"/>
 <circle className="fill-current" cx="251.95" cy="50.052" r="22.197"/>
 <circle className="fill-current" cx="39.907" cy="54.26" r="22.24"/>
</svg>
